<?xml version="1.0" encoding="UTF-8"?>
<svg xmlns="http://www.w3.org/2000/svg" xmlns:xlink="http://www.w3.org/1999/xlink" width="40px" height="40px" viewBox="0 0 40 40" version="1.1">
<g id="surface1">
<path style=" stroke:none;fill-rule:nonzero;fill:rgba(149,51,28,255);fill-opacity:1;" d="M 15.71875 4.835938 C 9.71875 4.835938 4.835938 9.71875 4.835938 15.71875 C 4.835938 21.71875 9.71875 26.601562 15.71875 26.601562 C 21.71875 26.601562 26.601562 21.71875 26.601562 15.71875 C 26.601562 9.71875 21.71875 4.835938 15.71875 4.835938 Z M 15.71875 24.183594 C 11.050781 24.183594 7.253906 20.386719 7.253906 15.71875 C 7.253906 11.050781 11.050781 7.253906 15.71875 7.253906 C 20.386719 7.253906 24.183594 11.050781 24.183594 15.71875 C 24.183594 20.386719 20.386719 24.183594 15.71875 24.183594 Z M 15.71875 24.183594 "/>
<path style=" stroke:none;fill-rule:nonzero;fill:rgba(149,51,28,255);fill-opacity:1;" d="M 19.992188 11.445312 C 18.855469 10.304688 17.335938 9.675781 15.71875 9.675781 C 14.101562 9.675781 12.585938 10.304688 11.445312 11.445312 L 13.152344 13.152344 C 14.570312 11.738281 16.871094 11.738281 18.285156 13.152344 C 19.699219 14.566406 19.699219 16.871094 18.285156 18.285156 L 19.992188 19.992188 C 21.132812 18.855469 21.761719 17.335938 21.761719 15.71875 C 21.761719 14.101562 21.132812 12.585938 19.992188 11.445312 Z M 19.992188 11.445312 "/>
<path style=" stroke:none;fill-rule:nonzero;fill:rgba(149,51,28,255);fill-opacity:1;" d="M 29.097656 23.964844 C 30.632812 21.488281 31.4375 18.660156 31.4375 15.71875 C 31.4375 7.050781 24.386719 0 15.71875 0 C 7.050781 0 0 7.050781 0 15.71875 C 0 24.386719 7.050781 31.4375 15.71875 31.4375 C 18.660156 31.4375 21.488281 30.632812 23.964844 29.097656 L 34.871094 40 L 40 34.871094 Z M 24.253906 25.964844 L 23.421875 26.558594 C 21.160156 28.167969 18.496094 29.019531 15.71875 29.019531 C 8.386719 29.019531 2.417969 23.054688 2.417969 15.71875 C 2.417969 8.386719 8.386719 2.417969 15.71875 2.417969 C 23.054688 2.417969 29.019531 8.386719 29.019531 15.71875 C 29.019531 18.496094 28.167969 21.160156 26.558594 23.421875 L 25.964844 24.253906 L 36.578125 34.871094 L 34.871094 36.578125 Z M 24.253906 25.964844 "/>
</g>
</svg>
